# xmcd
#
# Track frame offsets:
#	150
#	16498
#	31725
#	49362
#	61756
#	80263
#	99094
#	110140
#	121615
#	138054
#	154053
#	174702
#	189331
#
# Disc length: 2752 seconds
#
# Revision: 1
# Processed by: cddbd v1.5.1PL0 Copyright (c) Steve Scherf et al.
# Submitted via: EasyCDDAExtractor 7.0.5.1
#
DISCID=980abe0d
DTITLE=BG Bazar - Dech morskych plani
DYEAR=2003
DGENRE=Bluegrass
TTITLE0=Kometa
TTITLE1=Oaza Usmireni
TTITLE2=Vlny
TTITLE3=Svadiva hra
TTITLE4=Nymfa Kalypso a nekonecne objeti
TTITLE5=Dech morskych plani
TTITLE6=Ja videl tvuj
TTITLE7=Vyhazov
TTITLE8=Poselstvi veku
TTITLE9=Modra orchidej
TTITLE10=Motylek
TTITLE11=Last Kiss
TTITLE12=Give Me Some Hope
EXTD=
EXTT0=
EXTT1=
EXTT2=
EXTT3=
EXTT4=
EXTT5=
EXTT6=
EXTT7=
EXTT8=
EXTT9=
EXTT10=
EXTT11=
EXTT12=
PLAYORDER=
